# xmcd
#
# Track frame offsets:
#	150
#	12078
#	34345
#	52362
#	66929
#	86637
#	118449
#	137887
#
# Disc length: 2347 seconds
#
# Revision: 0
# Processed by: cddbd v1.5.1PL0 Copyright (c) Steve Scherf et al.
# Submitted via: dBpowerAMP V4.0
#
DISCID=7a092908
DTITLE=Neil young - on the beach
DYEAR=1900
DGENRE=Blues
TTITLE0=Walk On
TTITLE1=See the sky about to Rain
TTITLE2=Revolution Blues
TTITLE3=For the Turnstiles
TTITLE4=Vampire Blues
TTITLE5=On the Beach
TTITLE6=Motion pictures
TTITLE7=Ambulance Blues
EXTD=
EXTT0=
EXTT1=
EXTT2=
EXTT3=
EXTT4=
EXTT5=
EXTT6=
EXTT7=
PLAYORDER=
